G04*
G04 #@! TF.GenerationSoftware,Altium Limited,Altium Designer,21.3.2 (30)*
G04*
G04 Layer_Color=16711935*
%FSLAX25Y25*%
%MOIN*%
G70*
G04*
G04 #@! TF.SameCoordinates,85017F29-9A71-4B45-BEFD-3BEF8A3D19F2*
G04*
G04*
G04 #@! TF.FilePolarity,Positive*
G04*
G01*
G75*
%ADD34C,0.00394*%
%ADD35R,0.02436X0.07480*%
D34*
X109646Y438386D02*
X130512D01*
X136417Y444291D01*
Y471063D01*
X103740D02*
X136417D01*
X103740Y444291D02*
Y471063D01*
Y444291D02*
X109646Y438386D01*
X147835Y419095D02*
X163189D01*
X147835Y411614D02*
X163189D01*
X147835D02*
Y419095D01*
X163189Y411614D02*
Y419095D01*
X189370Y411811D02*
X239764D01*
X189370Y462205D02*
X239764D01*
Y411811D02*
Y462205D01*
X189370Y411811D02*
Y462205D01*
X215354Y473622D02*
X219685Y469291D01*
X215354Y473622D02*
Y495276D01*
X241339D01*
Y473622D02*
Y495276D01*
X237008Y469291D02*
X241339Y473622D01*
X219685Y469291D02*
X237008D01*
X190453Y467224D02*
Y473721D01*
X203248Y467224D02*
Y473721D01*
X190453D02*
X203248D01*
X190453Y467224D02*
X203248D01*
X187697Y494587D02*
X194193D01*
X187697Y481791D02*
X194193D01*
Y494587D01*
X187697Y481791D02*
Y494587D01*
D35*
X149052Y415355D02*
D03*
M02*
