G04*
G04 #@! TF.GenerationSoftware,Altium Limited,Altium Designer,21.3.2 (30)*
G04*
G04 Layer_Physical_Order=1*
G04 Layer_Color=255*
%FSLAX25Y25*%
%MOIN*%
G70*
G04*
G04 #@! TF.SameCoordinates,85017F29-9A71-4B45-BEFD-3BEF8A3D19F2*
G04*
G04*
G04 #@! TF.FilePolarity,Positive*
G04*
G01*
G75*
%ADD12R,0.35433X0.41968*%
G04:AMPARAMS|DCode=13|XSize=44.09mil|YSize=118.11mil|CornerRadius=11.02mil|HoleSize=0mil|Usage=FLASHONLY|Rotation=0.000|XOffset=0mil|YOffset=0mil|HoleType=Round|Shape=RoundedRectangle|*
%AMROUNDEDRECTD13*
21,1,0.04409,0.09606,0,0,0.0*
21,1,0.02205,0.11811,0,0,0.0*
1,1,0.02205,0.01102,-0.04803*
1,1,0.02205,-0.01102,-0.04803*
1,1,0.02205,-0.01102,0.04803*
1,1,0.02205,0.01102,0.04803*
%
%ADD13ROUNDEDRECTD13*%
%ADD14R,0.09055X0.17913*%
%ADD15R,0.05118X0.05512*%
%ADD16R,0.11417X0.21260*%
%ADD17R,0.06299X0.12598*%
%ADD18R,0.04724X0.06496*%
%ADD19R,0.06496X0.04724*%
%ADD29C,0.03937*%
%ADD30C,0.01968*%
%ADD31R,0.05906X0.29528*%
G04:AMPARAMS|DCode=32|XSize=118.11mil|YSize=118.11mil|CornerRadius=29.53mil|HoleSize=0mil|Usage=FLASHONLY|Rotation=0.000|XOffset=0mil|YOffset=0mil|HoleType=Round|Shape=RoundedRectangle|*
%AMROUNDEDRECTD32*
21,1,0.11811,0.05906,0,0,0.0*
21,1,0.05906,0.11811,0,0,0.0*
1,1,0.05906,0.02953,-0.02953*
1,1,0.05906,-0.02953,-0.02953*
1,1,0.05906,-0.02953,0.02953*
1,1,0.05906,0.02953,0.02953*
%
%ADD32ROUNDEDRECTD32*%
%ADD33C,0.02756*%
G36*
X271654Y403543D02*
X98425D01*
Y500000D01*
X271654D01*
Y403543D01*
D02*
G37*
%LPC*%
G36*
X194980Y496850D02*
X191929D01*
Y494685D01*
X194980D01*
Y496850D01*
D02*
G37*
G36*
X189961D02*
X186909D01*
Y494685D01*
X189961D01*
Y496850D01*
D02*
G37*
G36*
X232283Y499213D02*
X229331D01*
Y493110D01*
X232283D01*
Y499213D01*
D02*
G37*
G36*
X227362D02*
X224410D01*
Y493110D01*
X227362D01*
Y499213D01*
D02*
G37*
G36*
X194980Y492717D02*
X191929D01*
Y490551D01*
X194980D01*
Y492717D01*
D02*
G37*
G36*
X189961D02*
X186909D01*
Y490551D01*
X189961D01*
Y492717D01*
D02*
G37*
G36*
X232283Y491142D02*
X229331D01*
Y485039D01*
X232283D01*
Y491142D01*
D02*
G37*
G36*
X227362D02*
X224410D01*
Y485039D01*
X227362D01*
Y491142D01*
D02*
G37*
G36*
X125394Y479429D02*
X121063D01*
Y470669D01*
X125394D01*
Y479429D01*
D02*
G37*
G36*
X119095D02*
X114764D01*
Y470669D01*
X119095D01*
Y479429D01*
D02*
G37*
G36*
X125394Y468701D02*
X121063D01*
Y459941D01*
X125394D01*
Y468701D01*
D02*
G37*
G36*
X119095D02*
X114764D01*
Y459941D01*
X119095D01*
Y468701D01*
D02*
G37*
G36*
X194791Y485638D02*
X187098D01*
Y479716D01*
X188750D01*
Y474319D01*
X188378D01*
Y466626D01*
X188750D01*
Y458159D01*
X178061Y447471D01*
X173228D01*
X172558Y447383D01*
X171934Y447124D01*
X171398Y446713D01*
X171398Y446713D01*
X166823Y442138D01*
X166411Y441602D01*
X166153Y440977D01*
X166065Y440307D01*
X166065Y440307D01*
Y437640D01*
X165949Y437467D01*
X165817Y436803D01*
Y427197D01*
X165949Y426533D01*
X166325Y425971D01*
X166888Y425595D01*
X167551Y425463D01*
X169756D01*
X170420Y425595D01*
X170982Y425971D01*
X171358Y426533D01*
X171490Y427197D01*
Y436803D01*
X171358Y437467D01*
X171243Y437640D01*
Y439235D01*
X174301Y442293D01*
X179134D01*
X179134Y442293D01*
X179804Y442381D01*
X180428Y442640D01*
X180965Y443051D01*
X193169Y455256D01*
X193581Y455792D01*
X193839Y456417D01*
X193928Y457087D01*
X193928Y457087D01*
Y466626D01*
X194299D01*
Y474319D01*
X193928D01*
Y479716D01*
X194791D01*
Y485638D01*
D02*
G37*
G36*
X198819Y451435D02*
X193898D01*
X193699Y451353D01*
X193493Y451293D01*
X189672Y448236D01*
X189165D01*
Y447831D01*
X182666Y442632D01*
X182648Y442598D01*
X182613Y442584D01*
X182531Y442386D01*
X182427Y442198D01*
X182438Y442161D01*
X182423Y442126D01*
Y423497D01*
X170992Y412065D01*
X156159D01*
Y415354D01*
X155970Y415812D01*
X152223Y419560D01*
Y426143D01*
X152723Y426295D01*
X152939Y425971D01*
X153502Y425595D01*
X154165Y425463D01*
X156370D01*
X157034Y425595D01*
X157596Y425971D01*
X157972Y426533D01*
X158104Y427197D01*
Y436803D01*
X157972Y437467D01*
X157621Y437993D01*
Y439457D01*
X157532Y440127D01*
X157274Y440751D01*
X156862Y441288D01*
X156862Y441288D01*
X152569Y445580D01*
X152033Y445992D01*
X151409Y446250D01*
X150739Y446339D01*
X150739Y446339D01*
X144088D01*
X137573Y451303D01*
X137372Y451356D01*
X137180Y451435D01*
X114173D01*
X113715Y451245D01*
X103873Y441403D01*
X103683Y440945D01*
Y413386D01*
X103873Y412928D01*
X111747Y405054D01*
X111765Y405046D01*
X111773Y405029D01*
X111793Y405022D01*
X111803Y405003D01*
X112008Y404946D01*
X112205Y404864D01*
X122047D01*
X122505Y405054D01*
X132348Y414896D01*
X132360Y414925D01*
X132387Y414940D01*
X144198Y429113D01*
X144264Y429324D01*
X144349Y429528D01*
Y440466D01*
X144970Y441160D01*
X149666D01*
X150741Y440086D01*
X150549Y439624D01*
X145669D01*
X145211Y439434D01*
X145022Y438976D01*
Y411417D01*
Y409449D01*
X145211Y408991D01*
X149148Y405054D01*
X149606Y404864D01*
X194882D01*
X195340Y405054D01*
X203214Y412928D01*
X203404Y413386D01*
Y425197D01*
Y448819D01*
X203363Y448917D01*
X203370Y449024D01*
X203272Y449138D01*
X203214Y449277D01*
X203116Y449318D01*
X203046Y449398D01*
X199109Y451367D01*
X198958Y451377D01*
X198819Y451435D01*
D02*
G37*
G36*
X232283Y480963D02*
X206693D01*
X206235Y480773D01*
X199781Y474319D01*
X199402D01*
Y473940D01*
X198361Y472899D01*
X198171Y472441D01*
Y460630D01*
X198361Y460172D01*
X208014Y450519D01*
Y437008D01*
X208203Y436550D01*
X237731Y407022D01*
X238189Y406833D01*
X257874D01*
X258332Y407022D01*
X262269Y410959D01*
X262459Y411417D01*
Y450787D01*
X262269Y451245D01*
X260301Y453214D01*
X260300Y453214D01*
X232741Y480773D01*
X232283Y480963D01*
D02*
G37*
%LPD*%
G36*
X202756Y448819D02*
Y425197D01*
Y413386D01*
X194882Y405512D01*
X149606D01*
X145669Y409449D01*
Y411417D01*
X149606D01*
X147638Y413386D01*
Y419291D01*
X151575D01*
X155512Y415354D01*
Y411417D01*
X171260D01*
X183071Y423228D01*
Y442126D01*
X193898Y450787D01*
X198819D01*
X202756Y448819D01*
D02*
G37*
G36*
X146417Y443750D02*
X143701Y440713D01*
Y429528D01*
X131890Y415354D01*
X122047Y405512D01*
X112205D01*
X104331Y413386D01*
Y440945D01*
X114173Y450787D01*
X137180D01*
X146417Y443750D01*
D02*
G37*
G36*
X259842Y452756D02*
Y452756D01*
X261811Y450787D01*
Y411417D01*
X257874Y407480D01*
X238189D01*
X208661Y437008D01*
Y450787D01*
X198819Y460630D01*
Y472441D01*
X206693Y480315D01*
X232283D01*
X259842Y452756D01*
D02*
G37*
D12*
X162075Y471000D02*
D03*
D13*
X175347Y432000D02*
D03*
X168654D02*
D03*
X161961D02*
D03*
X155268D02*
D03*
X148575D02*
D03*
D03*
D14*
X120079Y469685D02*
D03*
Y439764D02*
D03*
D15*
X149803Y415354D02*
D03*
X161221D02*
D03*
D16*
X233661Y437008D02*
D03*
X195472D02*
D03*
D17*
X228346Y472441D02*
D03*
Y492126D02*
D03*
D18*
X191339Y470472D02*
D03*
X202362D02*
D03*
D19*
X190945Y493701D02*
D03*
Y482677D02*
D03*
D29*
X131151Y443750D02*
X150739D01*
X155032Y432236D02*
X155268Y432000D01*
X150739Y443750D02*
X155032Y439457D01*
Y432236D02*
Y439457D01*
X173228Y444882D02*
X179134D01*
X168654Y432000D02*
Y440307D01*
X173228Y444882D01*
X179134D02*
X191339Y457087D01*
Y470472D01*
X120079Y440354D02*
X122638Y442913D01*
X120079Y439764D02*
Y440354D01*
X122638Y442913D02*
X130315D01*
X131151Y443750D01*
X191339Y470472D02*
Y482283D01*
X190945Y482677D02*
X191339Y482283D01*
D30*
X228346Y469291D02*
Y472441D01*
X226378Y470472D02*
X228346Y472441D01*
D31*
X148622Y424213D02*
D03*
D32*
X253937Y415354D02*
D03*
X118110D02*
D03*
X253937Y490158D02*
D03*
X118110D02*
D03*
D33*
X265748Y472441D02*
D03*
X259842Y460630D02*
D03*
X265748Y448819D02*
D03*
Y425197D02*
D03*
X253937Y472441D02*
D03*
X236220Y484252D02*
D03*
X224409Y413386D02*
D03*
X212598Y484252D02*
D03*
Y413386D02*
D03*
X200787Y484252D02*
D03*
X206693Y425197D02*
D03*
X183071Y472441D02*
D03*
X141732Y484252D02*
D03*
Y460630D02*
D03*
Y413386D02*
D03*
X129921Y484252D02*
D03*
X135827Y472441D02*
D03*
X129921Y460630D02*
D03*
X106299Y484252D02*
D03*
X112205Y472441D02*
D03*
X106299Y460630D02*
D03*
M02*
