G04*
G04 #@! TF.GenerationSoftware,Altium Limited,Altium Designer,21.3.2 (30)*
G04*
G04 Layer_Color=8388736*
%FSLAX25Y25*%
%MOIN*%
G70*
G04*
G04 #@! TF.SameCoordinates,85017F29-9A71-4B45-BEFD-3BEF8A3D19F2*
G04*
G04*
G04 #@! TF.FilePolarity,Negative*
G04*
G01*
G75*
%ADD20R,0.36233X0.42768*%
G04:AMPARAMS|DCode=21|XSize=52.09mil|YSize=126.11mil|CornerRadius=15.02mil|HoleSize=0mil|Usage=FLASHONLY|Rotation=0.000|XOffset=0mil|YOffset=0mil|HoleType=Round|Shape=RoundedRectangle|*
%AMROUNDEDRECTD21*
21,1,0.05209,0.09606,0,0,0.0*
21,1,0.02205,0.12611,0,0,0.0*
1,1,0.03005,0.01102,-0.04803*
1,1,0.03005,-0.01102,-0.04803*
1,1,0.03005,-0.01102,0.04803*
1,1,0.03005,0.01102,0.04803*
%
%ADD21ROUNDEDRECTD21*%
%ADD22R,0.09855X0.18713*%
%ADD23R,0.05918X0.06312*%
%ADD24R,0.12217X0.22060*%
%ADD25R,0.07099X0.13398*%
%ADD26R,0.05524X0.07296*%
%ADD27R,0.07296X0.05524*%
G04:AMPARAMS|DCode=28|XSize=126.11mil|YSize=126.11mil|CornerRadius=33.53mil|HoleSize=0mil|Usage=FLASHONLY|Rotation=0.000|XOffset=0mil|YOffset=0mil|HoleType=Round|Shape=RoundedRectangle|*
%AMROUNDEDRECTD28*
21,1,0.12611,0.05906,0,0,0.0*
21,1,0.05906,0.12611,0,0,0.0*
1,1,0.06706,0.02953,-0.02953*
1,1,0.06706,-0.02953,-0.02953*
1,1,0.06706,-0.02953,0.02953*
1,1,0.06706,0.02953,0.02953*
%
%ADD28ROUNDEDRECTD28*%
D20*
X162075Y471000D02*
D03*
D21*
X175347Y432000D02*
D03*
X168654D02*
D03*
X161961D02*
D03*
X155268D02*
D03*
X148575D02*
D03*
D03*
D22*
X120079Y469685D02*
D03*
Y439764D02*
D03*
D23*
X149803Y415354D02*
D03*
X161221D02*
D03*
D24*
X233661Y437008D02*
D03*
X195472D02*
D03*
D25*
X228346Y472441D02*
D03*
Y492126D02*
D03*
D26*
X191339Y470472D02*
D03*
X202362D02*
D03*
D27*
X190945Y493701D02*
D03*
Y482677D02*
D03*
D28*
X253937Y415354D02*
D03*
X118110D02*
D03*
X253937Y490158D02*
D03*
X118110D02*
D03*
M02*
