G04*
G04 #@! TF.GenerationSoftware,Altium Limited,Altium Designer,21.3.2 (30)*
G04*
G04 Layer_Color=32768*
%FSLAX25Y25*%
%MOIN*%
G70*
G04*
G04 #@! TF.SameCoordinates,85017F29-9A71-4B45-BEFD-3BEF8A3D19F2*
G04*
G04*
G04 #@! TF.FilePolarity,Positive*
G04*
G01*
G75*
%ADD10C,0.00591*%
%ADD34C,0.00394*%
%ADD36C,0.00197*%
D10*
X140075Y460750D02*
Y498500D01*
Y420500D02*
Y460500D01*
X162075Y498500D02*
X184076D01*
X140075Y420500D02*
X162075D01*
X184076D01*
Y498500D01*
X140075D02*
X162075D01*
D34*
X157075Y464000D02*
X162075D01*
X167075D01*
X162075Y459000D02*
Y464000D01*
Y469000D01*
X118110Y454724D02*
X122047D01*
X120079Y452756D02*
Y456693D01*
X153543Y415354D02*
X157480D01*
X155512Y413386D02*
Y417323D01*
X214567Y435039D02*
Y438976D01*
X212598Y437008D02*
X216535D01*
X228346Y480315D02*
Y484252D01*
X226378Y482283D02*
X230315D01*
X194882Y470472D02*
X198819D01*
X196850Y468504D02*
Y472441D01*
X190945Y486221D02*
Y490158D01*
X188976Y488189D02*
X192913D01*
D36*
X137402Y429528D02*
Y479921D01*
X102756Y429528D02*
Y479921D01*
X137402D01*
X102756Y429528D02*
X137402D01*
X164567Y410630D02*
Y420079D01*
X146457Y410630D02*
Y420079D01*
Y410630D02*
X164567D01*
X146457Y420079D02*
X164567D01*
X186122Y410827D02*
X243012D01*
X186122Y463189D02*
X243012D01*
Y410827D02*
Y463189D01*
X186122Y410827D02*
Y463189D01*
X214173Y465354D02*
X242520D01*
X214173Y499213D02*
X242520D01*
X214173Y465354D02*
Y499213D01*
X242520Y465354D02*
Y499213D01*
X187992Y466142D02*
Y474803D01*
X205709Y466142D02*
Y474803D01*
X187992D02*
X205709D01*
X187992Y466142D02*
X205709D01*
X186614Y497047D02*
X195276D01*
X186614Y479331D02*
X195276D01*
Y497047D01*
X186614Y479331D02*
Y497047D01*
M02*
